<mxfile host="app.diagrams.net" modified="2023-08-24T14:40:18.808Z" agent="Mozilla/5.0 (Windows NT 10.0; Win64; x64) AppleWebKit/537.36 (KHTML, like Gecko) Chrome/116.0.0.0 Safari/537.36" version="21.6.9" etag="TFdkkgx6gCMAjchNYBo2" type="github">
  <diagram name="PÃ¡gina-1" id="zXIeVbv__4RzE7kDEDhD">
    <mxGraphModel>
      <root>
        <mxCell id="0" />
        <mxCell id="1" parent="0" />
      </root>
    </mxGraphModel>
  </diagram>
</mxfile>
